<mxfile host="app.diagrams.net" agent="Mozilla/5.0 (Windows NT 10.0; Win64; x64) AppleWebKit/537.36 (KHTML, like Gecko) Chrome/127.0.0.0 Safari/537.36" version="24.7.6">
  <diagram name="Page-1" id="gfGuwqxxSRItXzqbuB6H">
    <mxGraphModel dx="819" dy="451" grid="0" gridSize="10" guides="1" tooltips="1" connect="1" arrows="1" fold="1" page="0" pageScale="1" pageWidth="850" pageHeight="1100" math="0" shadow="0">
      <root>
        <mxCell id="0" />
        <mxCell id="1" parent="0" />
        <mxCell id="tnFT9HJpCabny1uVlbtW-4" style="edgeStyle=orthogonalEdgeStyle;rounded=0;orthogonalLoop=1;jettySize=auto;html=1;" edge="1" parent="1" source="tnFT9HJpCabny1uVlbtW-1" target="tnFT9HJpCabny1uVlbtW-6">
          <mxGeometry relative="1" as="geometry">
            <mxPoint x="440" y="200" as="targetPoint" />
          </mxGeometry>
        </mxCell>
        <mxCell id="tnFT9HJpCabny1uVlbtW-12" value="Home Page&lt;div&gt;has a patient form&lt;/div&gt;" style="edgeLabel;html=1;align=center;verticalAlign=middle;resizable=0;points=[];" vertex="1" connectable="0" parent="tnFT9HJpCabny1uVlbtW-4">
          <mxGeometry x="-0.3861" y="-1" relative="1" as="geometry">
            <mxPoint as="offset" />
          </mxGeometry>
        </mxCell>
        <mxCell id="tnFT9HJpCabny1uVlbtW-1" value="Home Page" style="whiteSpace=wrap;html=1;aspect=fixed;" vertex="1" parent="1">
          <mxGeometry x="260" y="240" width="80" height="80" as="geometry" />
        </mxCell>
        <mxCell id="tnFT9HJpCabny1uVlbtW-2" value="&lt;p style=&quot;line-height: 160%;&quot;&gt;&lt;font style=&quot;font-size: 20px;&quot;&gt;How the form is working in the website ?&lt;/font&gt;&lt;/p&gt;" style="text;html=1;align=center;verticalAlign=middle;resizable=0;points=[];autosize=1;strokeColor=none;fillColor=none;" vertex="1" parent="1">
          <mxGeometry x="222" y="106" width="376" height="58" as="geometry" />
        </mxCell>
        <mxCell id="tnFT9HJpCabny1uVlbtW-7" style="edgeStyle=orthogonalEdgeStyle;rounded=0;orthogonalLoop=1;jettySize=auto;html=1;" edge="1" parent="1" source="tnFT9HJpCabny1uVlbtW-6" target="tnFT9HJpCabny1uVlbtW-8">
          <mxGeometry relative="1" as="geometry">
            <mxPoint x="500" y="380" as="targetPoint" />
            <Array as="points">
              <mxPoint x="530" y="390" />
            </Array>
          </mxGeometry>
        </mxCell>
        <mxCell id="tnFT9HJpCabny1uVlbtW-11" value="After Filling&amp;nbsp;&lt;div&gt;Up the patient form&lt;/div&gt;&lt;div&gt;User will send register request&amp;nbsp;&lt;/div&gt;&lt;div&gt;to &lt;b&gt;&lt;font color=&quot;#ff3399&quot;&gt;Appwrite&lt;/font&gt;&lt;/b&gt;&lt;/div&gt;" style="edgeLabel;html=1;align=center;verticalAlign=middle;resizable=0;points=[];" vertex="1" connectable="0" parent="tnFT9HJpCabny1uVlbtW-7">
          <mxGeometry x="-0.469" y="-1" relative="1" as="geometry">
            <mxPoint y="-33" as="offset" />
          </mxGeometry>
        </mxCell>
        <mxCell id="tnFT9HJpCabny1uVlbtW-13" value="On successfull auth user will redirect to&amp;nbsp;&lt;div&gt;a register form&lt;/div&gt;" style="edgeLabel;html=1;align=center;verticalAlign=middle;resizable=0;points=[];" vertex="1" connectable="0" parent="tnFT9HJpCabny1uVlbtW-7">
          <mxGeometry x="-0.2114" y="-1" relative="1" as="geometry">
            <mxPoint x="-153" y="1" as="offset" />
          </mxGeometry>
        </mxCell>
        <mxCell id="tnFT9HJpCabny1uVlbtW-6" value="Patient Form" style="whiteSpace=wrap;html=1;aspect=fixed;fillColor=#dae8fc;strokeColor=#6c8ebf;" vertex="1" parent="1">
          <mxGeometry x="490" y="180" width="70" height="70" as="geometry" />
        </mxCell>
        <mxCell id="tnFT9HJpCabny1uVlbtW-10" style="edgeStyle=orthogonalEdgeStyle;rounded=0;orthogonalLoop=1;jettySize=auto;html=1;" edge="1" parent="1" source="tnFT9HJpCabny1uVlbtW-8" target="tnFT9HJpCabny1uVlbtW-9">
          <mxGeometry relative="1" as="geometry">
            <Array as="points">
              <mxPoint x="460" y="530" />
              <mxPoint x="460" y="530" />
            </Array>
          </mxGeometry>
        </mxCell>
        <mxCell id="tnFT9HJpCabny1uVlbtW-15" value="Register page&lt;div&gt;has a register form&lt;/div&gt;" style="edgeLabel;html=1;align=center;verticalAlign=middle;resizable=0;points=[];" vertex="1" connectable="0" parent="tnFT9HJpCabny1uVlbtW-10">
          <mxGeometry x="-0.0361" y="1" relative="1" as="geometry">
            <mxPoint as="offset" />
          </mxGeometry>
        </mxCell>
        <mxCell id="tnFT9HJpCabny1uVlbtW-8" value="Register Page" style="whiteSpace=wrap;html=1;aspect=fixed;" vertex="1" parent="1">
          <mxGeometry x="260" y="460" width="110" height="110" as="geometry" />
        </mxCell>
        <mxCell id="tnFT9HJpCabny1uVlbtW-9" value="Register Form" style="whiteSpace=wrap;html=1;aspect=fixed;fillColor=#dae8fc;strokeColor=#6c8ebf;" vertex="1" parent="1">
          <mxGeometry x="560" y="490" width="70" height="70" as="geometry" />
        </mxCell>
        <mxCell id="tnFT9HJpCabny1uVlbtW-17" value="For styling componet&lt;div&gt;we are using &lt;b&gt;&lt;font color=&quot;#66b2ff&quot;&gt;shadcn&lt;/font&gt;&lt;/b&gt;&lt;/div&gt;" style="text;html=1;align=center;verticalAlign=middle;resizable=0;points=[];autosize=1;strokeColor=none;fillColor=none;" vertex="1" parent="1">
          <mxGeometry x="802" y="139" width="131" height="41" as="geometry" />
        </mxCell>
        <mxCell id="tnFT9HJpCabny1uVlbtW-18" value="As we can see we have multiple forms&lt;div&gt;in the website so we have created one&lt;/div&gt;&lt;div&gt;&lt;font color=&quot;#007fff&quot;&gt;CustomFormField.tsx &lt;/font&gt;component&lt;/div&gt;&lt;div&gt;so that we can create forms easily&lt;/div&gt;" style="text;html=1;align=center;verticalAlign=middle;resizable=0;points=[];autosize=1;strokeColor=none;fillColor=none;" vertex="1" parent="1">
          <mxGeometry x="768.5" y="200" width="222" height="70" as="geometry" />
        </mxCell>
      </root>
    </mxGraphModel>
  </diagram>
</mxfile>
